<mxfile host="Electron" modified="2024-01-13T16:41:04.207Z" agent="Mozilla/5.0 (Windows NT 10.0; Win64; x64) AppleWebKit/537.36 (KHTML, like Gecko) draw.io/22.1.18 Chrome/120.0.6099.199 Electron/28.1.2 Safari/537.36" etag="x8jOjDpqxd9RupPac81U" version="22.1.18" type="device">
  <diagram name="Page-1" id="vx6xqAF7YfR9htCbWt3y">
    <mxGraphModel dx="1050" dy="621" grid="1" gridSize="10" guides="1" tooltips="1" connect="1" arrows="1" fold="1" page="1" pageScale="1" pageWidth="827" pageHeight="1169" math="0" shadow="0">
      <root>
        <mxCell id="0" />
        <mxCell id="1" parent="0" />
        <mxCell id="CUBkbdzyg1uhCCtJJh53-8" style="rounded=0;orthogonalLoop=1;jettySize=auto;html=1;entryX=0;entryY=0.5;entryDx=0;entryDy=0;strokeWidth=3;exitX=1;exitY=0.5;exitDx=0;exitDy=0;fillColor=#60a917;strokeColor=#2D7600;" edge="1" parent="1" source="CUBkbdzyg1uhCCtJJh53-2" target="CUBkbdzyg1uhCCtJJh53-4">
          <mxGeometry relative="1" as="geometry" />
        </mxCell>
        <mxCell id="CUBkbdzyg1uhCCtJJh53-2" value="A" style="ellipse;whiteSpace=wrap;html=1;aspect=fixed;" vertex="1" parent="1">
          <mxGeometry x="240" y="140" width="80" height="80" as="geometry" />
        </mxCell>
        <mxCell id="CUBkbdzyg1uhCCtJJh53-3" value="B" style="ellipse;whiteSpace=wrap;html=1;aspect=fixed;" vertex="1" parent="1">
          <mxGeometry x="530" y="80" width="80" height="80" as="geometry" />
        </mxCell>
        <mxCell id="CUBkbdzyg1uhCCtJJh53-4" value="C" style="ellipse;whiteSpace=wrap;html=1;aspect=fixed;" vertex="1" parent="1">
          <mxGeometry x="640" y="280" width="80" height="80" as="geometry" />
        </mxCell>
        <mxCell id="CUBkbdzyg1uhCCtJJh53-5" value="E" style="ellipse;whiteSpace=wrap;html=1;aspect=fixed;" vertex="1" parent="1">
          <mxGeometry x="440" y="480" width="80" height="80" as="geometry" />
        </mxCell>
        <mxCell id="CUBkbdzyg1uhCCtJJh53-6" value="D" style="ellipse;whiteSpace=wrap;html=1;aspect=fixed;" vertex="1" parent="1">
          <mxGeometry x="190" y="400" width="80" height="80" as="geometry" />
        </mxCell>
        <mxCell id="CUBkbdzyg1uhCCtJJh53-9" style="rounded=0;orthogonalLoop=1;jettySize=auto;html=1;entryX=0.5;entryY=0;entryDx=0;entryDy=0;strokeWidth=3;exitX=0;exitY=1;exitDx=0;exitDy=0;fillColor=#60a917;strokeColor=#2D7600;" edge="1" parent="1" source="CUBkbdzyg1uhCCtJJh53-2" target="CUBkbdzyg1uhCCtJJh53-6">
          <mxGeometry relative="1" as="geometry">
            <mxPoint x="327" y="204" as="sourcePoint" />
            <mxPoint x="650" y="330" as="targetPoint" />
          </mxGeometry>
        </mxCell>
        <mxCell id="CUBkbdzyg1uhCCtJJh53-10" style="rounded=0;orthogonalLoop=1;jettySize=auto;html=1;entryX=0.5;entryY=0;entryDx=0;entryDy=0;strokeWidth=3;exitX=1;exitY=1;exitDx=0;exitDy=0;fillColor=#60a917;strokeColor=#2D7600;" edge="1" parent="1" source="CUBkbdzyg1uhCCtJJh53-2" target="CUBkbdzyg1uhCCtJJh53-5">
          <mxGeometry relative="1" as="geometry">
            <mxPoint x="290" y="230" as="sourcePoint" />
            <mxPoint x="240" y="410" as="targetPoint" />
          </mxGeometry>
        </mxCell>
        <mxCell id="CUBkbdzyg1uhCCtJJh53-11" style="rounded=0;orthogonalLoop=1;jettySize=auto;html=1;entryX=1;entryY=0;entryDx=0;entryDy=0;strokeWidth=3;exitX=0;exitY=1;exitDx=0;exitDy=0;fillColor=#d80073;strokeColor=#A50040;" edge="1" parent="1" source="CUBkbdzyg1uhCCtJJh53-3" target="CUBkbdzyg1uhCCtJJh53-6">
          <mxGeometry relative="1" as="geometry">
            <mxPoint x="318" y="218" as="sourcePoint" />
            <mxPoint x="490" y="490" as="targetPoint" />
          </mxGeometry>
        </mxCell>
        <mxCell id="CUBkbdzyg1uhCCtJJh53-12" style="rounded=0;orthogonalLoop=1;jettySize=auto;html=1;entryX=1;entryY=0;entryDx=0;entryDy=0;strokeWidth=3;exitX=0;exitY=0;exitDx=0;exitDy=0;fillColor=#0050ef;strokeColor=#001DBC;" edge="1" parent="1" source="CUBkbdzyg1uhCCtJJh53-4" target="CUBkbdzyg1uhCCtJJh53-2">
          <mxGeometry relative="1" as="geometry">
            <mxPoint x="552" y="158" as="sourcePoint" />
            <mxPoint x="268" y="422" as="targetPoint" />
          </mxGeometry>
        </mxCell>
        <mxCell id="CUBkbdzyg1uhCCtJJh53-13" style="rounded=0;orthogonalLoop=1;jettySize=auto;html=1;entryX=1;entryY=0.5;entryDx=0;entryDy=0;strokeWidth=3;exitX=0.5;exitY=0;exitDx=0;exitDy=0;fillColor=#0050ef;strokeColor=#001DBC;" edge="1" parent="1" source="CUBkbdzyg1uhCCtJJh53-4" target="CUBkbdzyg1uhCCtJJh53-3">
          <mxGeometry relative="1" as="geometry">
            <mxPoint x="662" y="302" as="sourcePoint" />
            <mxPoint x="318" y="162" as="targetPoint" />
          </mxGeometry>
        </mxCell>
        <mxCell id="CUBkbdzyg1uhCCtJJh53-14" style="rounded=0;orthogonalLoop=1;jettySize=auto;html=1;entryX=1;entryY=1;entryDx=0;entryDy=0;strokeWidth=3;exitX=0;exitY=1;exitDx=0;exitDy=0;fillColor=#0050ef;strokeColor=#001DBC;" edge="1" parent="1" source="CUBkbdzyg1uhCCtJJh53-4" target="CUBkbdzyg1uhCCtJJh53-6">
          <mxGeometry relative="1" as="geometry">
            <mxPoint x="690" y="290" as="sourcePoint" />
            <mxPoint x="620" y="130" as="targetPoint" />
          </mxGeometry>
        </mxCell>
        <mxCell id="CUBkbdzyg1uhCCtJJh53-15" style="rounded=0;orthogonalLoop=1;jettySize=auto;html=1;entryX=1;entryY=0.5;entryDx=0;entryDy=0;strokeWidth=3;exitX=0;exitY=1;exitDx=0;exitDy=0;fillColor=#0050ef;strokeColor=#001DBC;" edge="1" parent="1" target="CUBkbdzyg1uhCCtJJh53-5">
          <mxGeometry relative="1" as="geometry">
            <mxPoint x="662" y="358" as="sourcePoint" />
            <mxPoint x="280" y="450" as="targetPoint" />
            <Array as="points">
              <mxPoint x="600" y="430" />
            </Array>
          </mxGeometry>
        </mxCell>
        <mxCell id="CUBkbdzyg1uhCCtJJh53-16" style="rounded=0;orthogonalLoop=1;jettySize=auto;html=1;entryX=0.5;entryY=1;entryDx=0;entryDy=0;strokeWidth=3;fillColor=#e3c800;strokeColor=#B09500;exitX=1;exitY=0.5;exitDx=0;exitDy=0;" edge="1" parent="1" source="CUBkbdzyg1uhCCtJJh53-6" target="CUBkbdzyg1uhCCtJJh53-3">
          <mxGeometry relative="1" as="geometry">
            <mxPoint x="260" y="422" as="sourcePoint" />
            <mxPoint x="268" y="422" as="targetPoint" />
          </mxGeometry>
        </mxCell>
        <mxCell id="CUBkbdzyg1uhCCtJJh53-17" style="rounded=1;orthogonalLoop=1;jettySize=auto;html=1;entryX=0;entryY=1;entryDx=0;entryDy=0;strokeWidth=3;fillColor=#e3c800;strokeColor=#B09500;exitX=0;exitY=1;exitDx=0;exitDy=0;curved=0;" edge="1" parent="1" source="CUBkbdzyg1uhCCtJJh53-6" target="CUBkbdzyg1uhCCtJJh53-5">
          <mxGeometry relative="1" as="geometry">
            <mxPoint x="280" y="450" as="sourcePoint" />
            <mxPoint x="580" y="170" as="targetPoint" />
            <Array as="points">
              <mxPoint x="202" y="550" />
            </Array>
          </mxGeometry>
        </mxCell>
        <mxCell id="CUBkbdzyg1uhCCtJJh53-18" style="rounded=0;orthogonalLoop=1;jettySize=auto;html=1;entryX=0.5;entryY=1;entryDx=0;entryDy=0;strokeWidth=3;fillColor=#d80073;strokeColor=#ff00dd;exitX=0;exitY=0;exitDx=0;exitDy=0;" edge="1" parent="1" source="CUBkbdzyg1uhCCtJJh53-5" target="CUBkbdzyg1uhCCtJJh53-2">
          <mxGeometry relative="1" as="geometry">
            <mxPoint x="240" y="490" as="sourcePoint" />
            <mxPoint x="450" y="530" as="targetPoint" />
          </mxGeometry>
        </mxCell>
        <mxCell id="CUBkbdzyg1uhCCtJJh53-19" style="rounded=0;orthogonalLoop=1;jettySize=auto;html=1;entryX=0.5;entryY=1;entryDx=0;entryDy=0;strokeWidth=3;fillColor=#d80073;strokeColor=#ff00dd;exitX=0;exitY=0.5;exitDx=0;exitDy=0;" edge="1" parent="1" source="CUBkbdzyg1uhCCtJJh53-5" target="CUBkbdzyg1uhCCtJJh53-6">
          <mxGeometry relative="1" as="geometry">
            <mxPoint x="462" y="502" as="sourcePoint" />
            <mxPoint x="290" y="230" as="targetPoint" />
          </mxGeometry>
        </mxCell>
      </root>
    </mxGraphModel>
  </diagram>
</mxfile>
